{
	"asset":{
		"generator":"Khronos glTF Blender I/O v3.6.27",
		"version":"2.0"
	},
	"extensionsUsed":[
		"KHR_materials_specular",
		"KHR_materials_ior"
	],
	"scene":0,
	"scenes":[
		{
			"name":"Scene",
			"nodes":[
				0
			]
		}
	],
	"nodes":[
		{
			"mesh":0,
			"name":"Group_001"
		}
	],
	"materials":[
		{
			"doubleSided":true,
			"extensions":{
				"KHR_materials_specular":{
					"specularColorFactor":[
						0,
						0,
						0
					]
				},
				"KHR_materials_ior":{
					"ior":1.4500000476837158
				}
			},
			"name":"skp_front_default",
			"pbrMetallicRoughness":{
				"roughnessFactor":0.858578622341156
			}
		},
		{
			"doubleSided":true,
			"extensions":{
				"KHR_materials_specular":{
					"specularColorFactor":[
						0,
						0,
						0
					]
				},
				"KHR_materials_ior":{
					"ior":1.4500000476837158
				}
			},
			"name":"Color_003",
			"pbrMetallicRoughness":{
				"baseColorFactor":[
					0.6666666865348816,
					0.6666666865348816,
					0.6666666865348816,
					1
				],
				"roughnessFactor":0.858578622341156
			}
		},
		{
			"doubleSided":true,
			"extensions":{
				"KHR_materials_specular":{
					"specularColorFactor":[
						0,
						0,
						0
					]
				},
				"KHR_materials_ior":{
					"ior":1.4500000476837158
				}
			},
			"name":"Color_009",
			"pbrMetallicRoughness":{
				"baseColorFactor":[
					0,
					0,
					0,
					1
				],
				"roughnessFactor":0.858578622341156
			}
		},
		{
			"doubleSided":true,
			"extensions":{
				"KHR_materials_specular":{
					"specularColorFactor":[
						0,
						0,
						0
					]
				},
				"KHR_materials_ior":{
					"ior":1.4500000476837158
				}
			},
			"name":"Metal_Aluminum_Anodized",
			"pbrMetallicRoughness":{
				"roughnessFactor":0.858578622341156
			}
		}
	],
	"meshes":[
		{
			"name":"Mesh",
			"primitives":[
				{
					"attributes":{
						"POSITION":0,
						"NORMAL":1,
						"TEXCOORD_0":2,
						"TEXCOORD_1":3
					},
					"indices":4,
					"material":0
				},
				{
					"attributes":{
						"POSITION":5,
						"NORMAL":6,
						"TEXCOORD_0":7,
						"TEXCOORD_1":8
					},
					"indices":9,
					"material":1
				},
				{
					"attributes":{
						"POSITION":10,
						"NORMAL":11,
						"TEXCOORD_0":12,
						"TEXCOORD_1":13
					},
					"indices":14,
					"material":2
				},
				{
					"attributes":{
						"POSITION":15,
						"NORMAL":16,
						"TEXCOORD_0":17,
						"TEXCOORD_1":18
					},
					"indices":19,
					"material":3
				}
			]
		}
	],
	"accessors":[
		{
			"bufferView":0,
			"componentType":5126,
			"count":1699,
			"max":[
				0.15000009536743164,
				2.1499998569488525,
				1.5
			],
			"min":[
				-6.556707887739321e-08,
				-6.556708065375005e-09,
				0
			],
			"type":"VEC3"
		},
		{
			"bufferView":1,
			"componentType":5126,
			"count":1699,
			"type":"VEC3"
		},
		{
			"bufferView":2,
			"componentType":5126,
			"count":1699,
			"type":"VEC2"
		},
		{
			"bufferView":3,
			"componentType":5126,
			"count":1699,
			"type":"VEC2"
		},
		{
			"bufferView":4,
			"componentType":5123,
			"count":2670,
			"type":"SCALAR"
		},
		{
			"bufferView":5,
			"componentType":5126,
			"count":490,
			"max":[
				0.08000005036592484,
				1.190000057220459,
				0.08236100524663925
			],
			"min":[
				0.030000044032931328,
				0.9906151294708252,
				0.02500000409781933
			],
			"type":"VEC3"
		},
		{
			"bufferView":6,
			"componentType":5126,
			"count":490,
			"type":"VEC3"
		},
		{
			"bufferView":7,
			"componentType":5126,
			"count":490,
			"type":"VEC2"
		},
		{
			"bufferView":8,
			"componentType":5126,
			"count":490,
			"type":"VEC2"
		},
		{
			"bufferView":9,
			"componentType":5123,
			"count":1368,
			"type":"SCALAR"
		},
		{
			"bufferView":10,
			"componentType":5126,
			"count":174,
			"max":[
				0.08000008761882782,
				2.1100001335144043,
				1.4799998998641968
			],
			"min":[
				0.06800004094839096,
				-3.4969107609583716e-09,
				0.01000000350177288
			],
			"type":"VEC3"
		},
		{
			"bufferView":11,
			"componentType":5126,
			"count":174,
			"type":"VEC3"
		},
		{
			"bufferView":12,
			"componentType":5126,
			"count":174,
			"type":"VEC2"
		},
		{
			"bufferView":13,
			"componentType":5126,
			"count":174,
			"type":"VEC2"
		},
		{
			"bufferView":14,
			"componentType":5123,
			"count":492,
			"type":"SCALAR"
		},
		{
			"bufferView":15,
			"componentType":5126,
			"count":539,
			"max":[
				0.15000009536743164,
				2.1499998569488525,
				1.5
			],
			"min":[
				-6.556707887739321e-08,
				-6.556708065375005e-09,
				0
			],
			"type":"VEC3"
		},
		{
			"bufferView":16,
			"componentType":5126,
			"count":539,
			"type":"VEC3"
		},
		{
			"bufferView":17,
			"componentType":5126,
			"count":539,
			"type":"VEC2"
		},
		{
			"bufferView":18,
			"componentType":5126,
			"count":539,
			"type":"VEC2"
		},
		{
			"bufferView":19,
			"componentType":5123,
			"count":2085,
			"type":"SCALAR"
		}
	],
	"bufferViews":[
		{
			"buffer":0,
			"byteLength":20388,
			"byteOffset":0,
			"target":34962
		},
		{
			"buffer":0,
			"byteLength":20388,
			"byteOffset":20388,
			"target":34962
		},
		{
			"buffer":0,
			"byteLength":13592,
			"byteOffset":40776,
			"target":34962
		},
		{
			"buffer":0,
			"byteLength":13592,
			"byteOffset":54368,
			"target":34962
		},
		{
			"buffer":0,
			"byteLength":5340,
			"byteOffset":67960,
			"target":34963
		},
		{
			"buffer":0,
			"byteLength":5880,
			"byteOffset":73300,
			"target":34962
		},
		{
			"buffer":0,
			"byteLength":5880,
			"byteOffset":79180,
			"target":34962
		},
		{
			"buffer":0,
			"byteLength":3920,
			"byteOffset":85060,
			"target":34962
		},
		{
			"buffer":0,
			"byteLength":3920,
			"byteOffset":88980,
			"target":34962
		},
		{
			"buffer":0,
			"byteLength":2736,
			"byteOffset":92900,
			"target":34963
		},
		{
			"buffer":0,
			"byteLength":2088,
			"byteOffset":95636,
			"target":34962
		},
		{
			"buffer":0,
			"byteLength":2088,
			"byteOffset":97724,
			"target":34962
		},
		{
			"buffer":0,
			"byteLength":1392,
			"byteOffset":99812,
			"target":34962
		},
		{
			"buffer":0,
			"byteLength":1392,
			"byteOffset":101204,
			"target":34962
		},
		{
			"buffer":0,
			"byteLength":984,
			"byteOffset":102596,
			"target":34963
		},
		{
			"buffer":0,
			"byteLength":6468,
			"byteOffset":103580,
			"target":34962
		},
		{
			"buffer":0,
			"byteLength":6468,
			"byteOffset":110048,
			"target":34962
		},
		{
			"buffer":0,
			"byteLength":4312,
			"byteOffset":116516,
			"target":34962
		},
		{
			"buffer":0,
			"byteLength":4312,
			"byteOffset":120828,
			"target":34962
		},
		{
			"buffer":0,
			"byteLength":4170,
			"byteOffset":125140,
			"target":34963
		}
	],
	"buffers":[
		{
			"byteLength":129312,
			"uri":"data:application/octet-stream;base64,"
		}
	]
}
