{
	"asset":{
		"generator":"Khronos glTF Blender I/O v3.6.27",
		"version":"2.0"
	},
	"scene":0,
	"scenes":[
		{
			"name":"Scene",
			"nodes":[
				0
			]
		}
	],
	"nodes":[
		{
			"mesh":0,
			"name":"Hanger_1"
		}
	],
	"materials":[
		{
			"doubleSided":true,
			"name":"M_Hanger",
			"pbrMetallicRoughness":{
				"baseColorFactor":[
					0.5071426630020142,
					0.2554672956466675,
					0.17764778435230255,
					1
				],
				"metallicFactor":0,
				"roughnessFactor":0.5
			}
		}
	],
	"meshes":[
		{
			"name":"Hanger_1",
			"primitives":[
				{
					"attributes":{
						"POSITION":0,
						"NORMAL":1,
						"TEXCOORD_0":2
					},
					"indices":3,
					"material":0
				}
			]
		}
	],
	"accessors":[
		{
			"bufferView":0,
			"componentType":5126,
			"count":491,
			"max":[
				0.0048128352500498295,
				0.0231205802410841,
				0.17249904572963715
			],
			"min":[
				-0.005209179129451513,
				-0.13540345430374146,
				-0.15712790191173553
			],
			"type":"VEC3"
		},
		{
			"bufferView":1,
			"componentType":5126,
			"count":491,
			"type":"VEC3"
		},
		{
			"bufferView":2,
			"componentType":5126,
			"count":491,
			"type":"VEC2"
		},
		{
			"bufferView":3,
			"componentType":5123,
			"count":1992,
			"type":"SCALAR"
		}
	],
	"bufferViews":[
		{
			"buffer":0,
			"byteLength":5892,
			"byteOffset":0,
			"target":34962
		},
		{
			"buffer":0,
			"byteLength":5892,
			"byteOffset":5892,
			"target":34962
		},
		{
			"buffer":0,
			"byteLength":3928,
			"byteOffset":11784,
			"target":34962
		},
		{
			"buffer":0,
			"byteLength":3984,
			"byteOffset":15712,
			"target":34963
		}
	],
	"buffers":[
		{
			"byteLength":19696,
			"uri":"data:application/octet-stream;base64,"
		}
	]
}
