{
	"asset":{
		"generator":"Khronos glTF Blender I/O v3.6.27",
		"version":"2.0"
	},
	"extensionsUsed":[
		"KHR_materials_specular",
		"KHR_materials_ior"
	],
	"scene":0,
	"scenes":[
		{
			"name":"Scene",
			"nodes":[
				0
			]
		}
	],
	"nodes":[
		{
			"mesh":0,
			"name":"Armchair_01_Chair"
		}
	],
	"materials":[
		{
			"doubleSided":true,
			"extensions":{
				"KHR_materials_specular":{
					"specularColorFactor":[
						0,
						0,
						0
					]
				},
				"KHR_materials_ior":{
					"ior":1.4500000476837158
				}
			},
			"name":"Armchair_01",
			"pbrMetallicRoughness":{
				"baseColorFactor":[
					0.20752014219760895,
					0.21657076478004456,
					0.20976176857948303,
					1
				],
				"roughnessFactor":0.858578622341156
			}
		}
	],
	"meshes":[
		{
			"name":"Mesh",
			"primitives":[
				{
					"attributes":{
						"POSITION":0,
						"NORMAL":1,
						"TEXCOORD_0":2,
						"TEXCOORD_1":3
					},
					"indices":4,
					"material":0
				}
			]
		}
	],
	"accessors":[
		{
			"bufferView":0,
			"componentType":5126,
			"count":5997,
			"max":[
				0.49761682748794556,
				0.8606436848640442,
				0.35375919938087463
			],
			"min":[
				-0.49760982394218445,
				-1.2255312320519351e-08,
				-0.5012323260307312
			],
			"type":"VEC3"
		},
		{
			"bufferView":1,
			"componentType":5126,
			"count":5997,
			"type":"VEC3"
		},
		{
			"bufferView":2,
			"componentType":5126,
			"count":5997,
			"type":"VEC2"
		},
		{
			"bufferView":3,
			"componentType":5126,
			"count":5997,
			"type":"VEC2"
		},
		{
			"bufferView":4,
			"componentType":5123,
			"count":31776,
			"type":"SCALAR"
		}
	],
	"bufferViews":[
		{
			"buffer":0,
			"byteLength":71964,
			"byteOffset":0,
			"target":34962
		},
		{
			"buffer":0,
			"byteLength":71964,
			"byteOffset":71964,
			"target":34962
		},
		{
			"buffer":0,
			"byteLength":47976,
			"byteOffset":143928,
			"target":34962
		},
		{
			"buffer":0,
			"byteLength":47976,
			"byteOffset":191904,
			"target":34962
		},
		{
			"buffer":0,
			"byteLength":63552,
			"byteOffset":239880,
			"target":34963
		}
	],
	"buffers":[
		{
			"byteLength":303432,
			"uri":"data:application/octet-stream;base64,"
		}
	]
}
