{
	"asset":{
		"generator":"Khronos glTF Blender I/O v3.6.27",
		"version":"2.0"
	},
	"extensionsUsed":[
		"KHR_materials_specular",
		"KHR_materials_ior"
	],
	"scene":0,
	"scenes":[
		{
			"name":"Scene",
			"nodes":[
				0
			]
		}
	],
	"nodes":[
		{
			"mesh":0,
			"name":"T\u00dcL",
			"translation":[
				1.9933454990386963,
				0.25779879093170166,
				0.033530086278915405
			]
		}
	],
	"materials":[
		{
			"doubleSided":true,
			"extensions":{
				"KHR_materials_specular":{
					"specularColorFactor":[
						2.371357614441398,
						2.371357614441398,
						2.371357614441398
					]
				},
				"KHR_materials_ior":{
					"ior":1.4500000476837158
				}
			},
			"name":"curtain",
			"pbrMetallicRoughness":{
				"metallicRoughnessTexture":{
					"index":0
				},
				"roughnessFactor":0.5527864098548889
			}
		},
		{
			"doubleSided":true,
			"extensions":{
				"KHR_materials_specular":{
					"specularColorFactor":[
						2.371357614441398,
						2.371357614441398,
						2.371357614441398
					]
				},
				"KHR_materials_ior":{
					"ior":1.4500000476837158
				}
			},
			"name":"curtain2",
			"pbrMetallicRoughness":{
				"baseColorFactor":[
					0.1921568661928177,
					0.2980392277240753,
					0.29019609093666077,
					1
				],
				"metallicRoughnessTexture":{
					"index":1
				},
				"roughnessFactor":0.5527864098548889
			}
		}
	],
	"meshes":[
		{
			"name":"Mesh.006",
			"primitives":[
				{
					"attributes":{
						"POSITION":0,
						"NORMAL":1,
						"TEXCOORD_0":2
					},
					"indices":3,
					"material":0
				},
				{
					"attributes":{
						"POSITION":4,
						"NORMAL":5,
						"TEXCOORD_0":6
					},
					"indices":7,
					"material":1
				}
			]
		}
	],
	"textures":[
		{
			"sampler":0,
			"source":0
		},
		{
			"sampler":0,
			"source":0
		}
	],
	"images":[
		{
			"bufferView":4,
			"mimeType":"image/png",
			"name":"Image"
		}
	],
	"accessors":[
		{
			"bufferView":0,
			"componentType":5126,
			"count":1464,
			"max":[
				1.918973445892334,
				2.259324789047241,
				0.0903974324464798
			],
			"min":[
				-2.058985710144043,
				-0.2422276735305786,
				-0.22266869246959686
			],
			"type":"VEC3"
		},
		{
			"bufferView":1,
			"componentType":5126,
			"count":1464,
			"type":"VEC3"
		},
		{
			"bufferView":2,
			"componentType":5126,
			"count":1464,
			"type":"VEC2"
		},
		{
			"bufferView":3,
			"componentType":5123,
			"count":3564,
			"type":"SCALAR"
		},
		{
			"bufferView":5,
			"componentType":5126,
			"count":788,
			"max":[
				1.840054988861084,
				2.1596412658691406,
				0.05331823229789734
			],
			"min":[
				-1.9823708534240723,
				-0.24222755432128906,
				0.0048483386635780334
			],
			"type":"VEC3"
		},
		{
			"bufferView":6,
			"componentType":5126,
			"count":788,
			"type":"VEC3"
		},
		{
			"bufferView":7,
			"componentType":5126,
			"count":788,
			"type":"VEC2"
		},
		{
			"bufferView":8,
			"componentType":5123,
			"count":2016,
			"type":"SCALAR"
		}
	],
	"bufferViews":[
		{
			"buffer":0,
			"byteLength":17568,
			"byteOffset":0,
			"target":34962
		},
		{
			"buffer":0,
			"byteLength":17568,
			"byteOffset":17568,
			"target":34962
		},
		{
			"buffer":0,
			"byteLength":11712,
			"byteOffset":35136,
			"target":34962
		},
		{
			"buffer":0,
			"byteLength":7128,
			"byteOffset":46848,
			"target":34963
		},
		{
			"buffer":0,
			"byteLength":243,
			"byteOffset":53976
		},
		{
			"buffer":0,
			"byteLength":9456,
			"byteOffset":54220,
			"target":34962
		},
		{
			"buffer":0,
			"byteLength":9456,
			"byteOffset":63676,
			"target":34962
		},
		{
			"buffer":0,
			"byteLength":6304,
			"byteOffset":73132,
			"target":34962
		},
		{
			"buffer":0,
			"byteLength":4032,
			"byteOffset":79436,
			"target":34963
		}
	],
	"samplers":[
		{
			"magFilter":9729,
			"minFilter":9987
		}
	],
	"buffers":[
		{
			"byteLength":83468,
			"uri":"data:application/octet-stream;base64,"
		}
	]
}
